<svg width="20" height="20" viewBox="0 0 20 20" fill="none" xmlns="http://www.w3.org/2000/svg">
<path d="M8.82812 13.75H0.78125C0.349766 13.75 0 14.0998 0 14.5312V19.2188C0 19.6502 0.349766 20 0.78125 20H8.82812C9.25961 20 9.60938 19.6502 9.60938 19.2188V14.5312C9.60938 14.0998 9.25961 13.75 8.82812 13.75ZM8.04688 18.4375H1.5625V15.3125H8.04688V18.4375Z" fill="#1EA74D"/>
<path d="M8.82812 0H0.78125C0.349766 0 0 0.349766 0 0.78125V12.1875C0 12.619 0.349766 12.9688 0.78125 12.9688H8.82812C9.25961 12.9688 9.60938 12.619 9.60938 12.1875V0.78125C9.60938 0.349766 9.25961 0 8.82812 0ZM8.04688 11.4062H1.5625V1.5625H8.04688V11.4062Z" fill="#1EA74D"/>
<path d="M19.2188 0H11.1719C10.7404 0 10.3906 0.349766 10.3906 0.78125V5.46875C10.3906 5.90023 10.7404 6.25 11.1719 6.25H19.2188C19.6502 6.25 20 5.90023 20 5.46875V0.78125C20 0.349766 19.6502 0 19.2188 0ZM18.4375 4.6875H11.9531V1.5625H18.4375V4.6875Z" fill="#1EA74D"/>
<path d="M19.2188 7.03125H11.1719C10.7404 7.03125 10.3906 7.38102 10.3906 7.8125V19.2188C10.3906 19.6502 10.7404 20 11.1719 20H19.2188C19.6502 20 20 19.6502 20 19.2188V7.8125C20 7.38102 19.6502 7.03125 19.2188 7.03125ZM18.4375 18.4375H11.9531V8.59375H18.4375V18.4375Z" fill="#1EA74D"/>
</svg>
