<svg width="20" height="20" viewBox="0 0 20 20" fill="none" xmlns="http://www.w3.org/2000/svg">
<g clip-path="url(#clip0)">
<path d="M10.1641 0.529611C10.0848 0.49013 9.99171 0.49013 9.91244 0.529611H10.1641ZM10.1641 0.529611C10.1642 0.529653 10.1642 0.529694 10.1643 0.529735L19.3828 5.13898C19.3828 5.13899 19.3829 5.139 19.3829 5.13901C19.5892 5.24224 19.5891 5.53906 19.3829 5.64211L19.3829 5.64214L16.171 7.24814L15.2766 7.69537L16.171 8.14256L19.3828 9.74838C19.3828 9.74839 19.3829 9.7484 19.3829 9.74841C19.5892 9.85165 19.5891 10.1485 19.3829 10.2515L19.3829 10.2515L16.171 11.8575L15.2766 12.3048L16.171 12.752L19.3828 14.3578C19.3828 14.3578 19.3829 14.3578 19.3829 14.3578C19.5891 14.461 19.5892 14.7577 19.3828 14.861L10.1642 19.4703C10.1642 19.4703 10.1641 19.4703 10.1641 19.4703C10.0846 19.51 9.99147 19.5098 9.91231 19.4703L0.693695 14.861C0.487417 14.7578 0.487294 14.461 0.693695 14.3578L3.90548 12.752L4.79991 12.3048L3.90549 11.8575L0.693695 10.2516C0.487417 10.1484 0.487294 9.85161 0.693695 9.74838L3.90548 8.14256L4.79991 7.69537L3.90549 7.24814L0.693657 5.64214L0.693601 5.64211C0.487562 5.53912 0.487196 5.24231 0.693648 5.13901C0.693664 5.139 0.69368 5.13899 0.693696 5.13898L9.91219 0.529735L10.1641 0.529611ZM10.2619 1.20746L10.0383 1.09565L9.81465 1.20746L2.34284 4.94344L1.44842 5.39066L2.34285 5.83786L9.81466 9.57369L10.0383 9.68549L10.2619 9.57369L17.7337 5.83786L18.6281 5.39066L17.7337 4.94344L10.2619 1.20746ZM17.7337 15.0567L18.6281 14.6095L17.7337 14.1622L14.8713 12.731L14.6477 12.6191L14.424 12.7309L10.1642 14.8609C10.0848 14.9006 9.99166 14.9005 9.91219 14.8608L5.65247 12.7309L5.42886 12.6191L5.20525 12.731L2.34284 14.1622L1.44844 14.6095L2.34285 15.0567L9.81466 18.7925L10.0383 18.9043L10.2619 18.7925L17.7337 15.0567ZM9.81466 14.1831L10.0383 14.2949L10.2619 14.1831L17.7337 10.4473L18.6281 10.0001L17.7337 9.55284L14.8713 8.12155L14.6477 8.00974L14.424 8.12155L10.1642 10.2515C10.0848 10.2912 9.99166 10.2911 9.91219 10.2514L5.65247 8.12155L5.42886 8.00974L5.20525 8.12155L2.34284 9.55284L1.44844 10.0001L2.34285 10.4473L9.81466 14.1831Z" fill="#454545" stroke="#3F3F3F"/>
</g>
<defs>
<clipPath id="clip0">
<rect width="20" height="20" fill="white"/>
</clipPath>
</defs>
</svg>
