<svg width="20" height="19" viewBox="0 0 20 19" fill="none" xmlns="http://www.w3.org/2000/svg">
<path d="M3.14047 0C4.87203 0 6.28094 1.33827 6.28094 2.98327C6.28094 3.5116 6.13484 4.00804 5.88023 4.43878L10 8.3526L14.1198 4.43878C13.8652 4.00804 13.7191 3.5116 13.7191 2.98327C13.7191 1.33827 15.128 0 16.8595 0C18.5911 0 20 1.33827 20 2.98327C20 4.62827 18.5911 5.96674 16.8595 5.96674C16.3034 5.96674 15.7808 5.82795 15.3272 5.58607L10.8539 9.83599V13.1463C12.1716 13.5005 13.1405 14.6527 13.1405 16.0165C13.1405 17.6615 11.7316 19 10 19C8.26844 19 6.85953 17.6615 6.85953 16.0165C6.85953 14.6527 7.82838 13.5005 9.14612 13.1463V9.83599L4.67279 5.58607C4.21916 5.82817 3.69661 5.96674 3.14047 5.96674C1.40891 5.96674 0 4.62827 0 2.98327C0 1.33827 1.40891 0 3.14047 0ZM18.2922 2.98327C18.2922 2.2327 17.6496 1.6224 16.8595 1.6224C16.0695 1.6224 15.4268 2.2327 15.4268 2.98327C15.4268 3.73384 16.0695 4.34435 16.8595 4.34435C17.6496 4.34435 18.2922 3.73384 18.2922 2.98327ZM8.5673 16.0165C8.5673 16.7671 9.20994 17.3776 10 17.3776C10.7901 17.3776 11.4327 16.7671 11.4327 16.0165C11.4327 15.266 10.7901 14.6557 10 14.6557C9.20994 14.6557 8.5673 15.266 8.5673 16.0165ZM3.14047 4.34435C3.93053 4.34435 4.57317 3.73384 4.57317 2.98327C4.57317 2.2327 3.93053 1.6224 3.14047 1.6224C2.3504 1.6224 1.70777 2.2327 1.70777 2.98327C1.70777 3.73384 2.3504 4.34435 3.14047 4.34435Z" fill="#454545"/>
</svg>
